<svg xmlns="http://www.w3.org/2000/svg" xmlns:xlink="http://www.w3.org/1999/xlink" width="16" height="16" version="1.1" viewBox="0 0 16 16"><defs><path id="path-1" d="M16,8.0488907 C16,3.6036079 12.4182812,0 8,0 C3.5817188,0 0,3.6036079 0,8.0488907 C0,12.0663247 2.9254844,15.396176 6.75,16 L6.75,10.3755232 L4.71875,10.3755232 L4.71875,8.0488907 L6.75,8.0488907 L6.75,6.2756195 C6.75,4.2583662 7.9443437,3.1440979 9.7717187,3.1440979 C10.6469844,3.1440979 11.5625,3.3013028 11.5625,3.3013028 L11.5625,5.2820845 L10.5537188,5.2820845 C9.5599219,5.2820845 9.25,5.9025251 9.25,6.5390477 L9.25,8.0488907 L11.46875,8.0488907 L11.1140625,10.3755232 L9.25,10.3755232 L9.25,16 C13.0745156,15.396176 16,12.0663247 16,8.0488907"/></defs><g id="Symbols" fill="none" fill-rule="evenodd" stroke="none" stroke-width="1"><g id="Artboard" transform="translate(-610.000000, -48.000000)"><g id="fb-s-white" transform="translate(610.000000, 48.000000)"><g id="Fill-1" fill="#1877F2" fill-rule="nonzero"><path id="path-1" d="M16,8.0488907 C16,3.6036079 12.4182812,0 8,0 C3.5817188,0 0,3.6036079 0,8.0488907 C0,12.0663247 2.9254844,15.396176 6.75,16 L6.75,10.3755232 L4.71875,10.3755232 L4.71875,8.0488907 L6.75,8.0488907 L6.75,6.2756195 C6.75,4.2583662 7.9443437,3.1440979 9.7717187,3.1440979 C10.6469844,3.1440979 11.5625,3.3013028 11.5625,3.3013028 L11.5625,5.2820845 L10.5537188,5.2820845 C9.5599219,5.2820845 9.25,5.9025251 9.25,6.5390477 L9.25,8.0488907 L11.46875,8.0488907 L11.1140625,10.3755232 L9.25,10.3755232 L9.25,16 C13.0745156,15.396176 16,12.0663247 16,8.0488907"/></g><g id="Color-Clipped"><mask id="mask-2" fill="#fff"><use xlink:href="#path-1"/></mask><g id="Color" fill="#FFF" fill-rule="nonzero" mask="url(#mask-2)"><g id="Rectangle" transform="translate(-8.000000, -8.000000)"><rect width="32" height="32" x="0" y="0"/></g></g></g></g></g></g></svg>